<svg xmlns="http://www.w3.org/2000/svg" width="1600" height="900" viewBox="0 0 1600 900" role="img" aria-labelledby="title desc">
  <title id="title">ھورمۇز بوغۇزى ۋە خىتاينىڭ ئېنېرگىيە خەتىرى</title>
  <desc id="desc">قېنىق كۆك ۋە قىزغۇچ رەڭلىك سىياسىي cover: تار بوغۇز، نېفىت تامچىسى، يۈك پاراخوتى ۋە بېسىم دولقۇنى</desc>
  <defs>
    <linearGradient id="bg" x1="0" y1="0" x2="1" y2="1">
      <stop offset="0%" stop-color="#0b1020"/>
      <stop offset="50%" stop-color="#7c2d12"/>
      <stop offset="100%" stop-color="#111827"/>
    </linearGradient>
    <radialGradient id="glow" cx="55%" cy="50%" r="55%">
      <stop offset="0%" stop-color="#fb7185" stop-opacity="0.40"/>
      <stop offset="100%" stop-color="#fb7185" stop-opacity="0"/>
    </radialGradient>
    <filter id="shadow" x="-20%" y="-20%" width="140%" height="140%">
      <feDropShadow dx="0" dy="18" stdDeviation="22" flood-color="#000000" flood-opacity="0.35"/>
    </filter>
  </defs>
  <rect width="1600" height="900" fill="url(#bg)"/>
  <rect width="1600" height="900" fill="url(#glow)"/>

  <g opacity="0.12" stroke="#fdba74" stroke-width="2">
    <path d="M0 140 H1600"/><path d="M0 280 H1600"/><path d="M0 420 H1600"/><path d="M0 560 H1600"/><path d="M0 700 H1600"/>
    <path d="M200 0 V900"/><path d="M480 0 V900"/><path d="M760 0 V900"/><path d="M1040 0 V900"/><path d="M1320 0 V900"/>
  </g>

  <g filter="url(#shadow)">
    <path d="M250 230 C430 180, 620 220, 700 340 C760 430, 760 470, 700 560 C620 680, 430 720, 250 670 L250 230Z" fill="#0f172a" opacity="0.88"/>
    <path d="M1350 230 C1170 180, 980 220, 900 340 C840 430, 840 470, 900 560 C980 680, 1170 720, 1350 670 L1350 230Z" fill="#0f172a" opacity="0.88"/>
    <rect x="740" y="220" width="120" height="460" rx="54" fill="#1e293b" stroke="#fb7185" stroke-width="5"/>
    <path d="M800 255 C848 340, 858 410, 800 494 C742 410, 752 340, 800 255Z" fill="#f59e0b" opacity="0.88"/>
    <path d="M792 512 C828 560, 832 603, 800 650 C768 603, 772 560, 792 512Z" fill="#fde68a" opacity="0.95"/>
  </g>

  <g transform="translate(510,530)">
    <rect x="0" y="30" width="240" height="32" rx="12" fill="#94a3b8" opacity="0.7"/>
    <rect x="54" y="-10" width="120" height="60" rx="8" fill="#1f2937" stroke="#fdba74" stroke-width="4"/>
    <rect x="180" y="6" width="44" height="24" rx="4" fill="#1f2937" stroke="#fdba74" stroke-width="4"/>
    <circle cx="52" cy="70" r="14" fill="#111827" stroke="#fdba74" stroke-width="4"/>
    <circle cx="192" cy="70" r="14" fill="#111827" stroke="#fdba74" stroke-width="4"/>
    <path d="M12 88 C64 74, 116 74, 168 88 C198 96, 222 96, 244 90" fill="none" stroke="#93c5fd" stroke-width="6" stroke-linecap="round" opacity="0.65"/>
  </g>

  <g transform="translate(1135,135)">
    <circle cx="120" cy="120" r="110" fill="#111827" stroke="#fecaca" stroke-width="6"/>
    <path d="M58 145 L182 95" stroke="#fb7185" stroke-width="12" stroke-linecap="round"/>
    <path d="M58 195 L208 145" stroke="#fb7185" stroke-width="12" stroke-linecap="round" opacity="0.85"/>
    <path d="M58 245 L228 195" stroke="#fb7185" stroke-width="12" stroke-linecap="round" opacity="0.7"/>
  </g>

  <g font-family="Noto Naskh Arabic, Amiri, serif" text-anchor="end" fill="#fff7ed">
    <text x="1460" y="660" font-size="68" font-weight="700">ھورمۇز بوغۇزى</text>
    <text x="1460" y="742" font-size="68" font-weight="700">تاقالسا خىتاي</text>
    <text x="1460" y="828" font-size="84" font-weight="800" fill="#fde68a">نېمىنى يوقىتىدۇ؟</text>
  </g>
</svg>
